<svg width="36" height="36" viewBox="0 0 36 36" fill="none" xmlns="http://www.w3.org/2000/svg">
<path d="M18 36C27.9411 36 36 31.5228 36 26C36 20.4772 27.9411 16 18 16C8.05887 16 0 20.4772 0 26C0 31.5228 8.05887 36 18 36Z" fill="#99AAB5"/>
<path d="M18 34C27.9411 34 36 29.5228 36 24C36 18.4772 27.9411 14 18 14C8.05887 14 0 18.4772 0 24C0 29.5228 8.05887 34 18 34Z" fill="#CCD6DD"/>
<path d="M18 31C3.042 31 1 16 1 12H35C35 14 33.042 31 18 31Z" fill="#F5F8FA"/>
<path d="M34.385 9.64566C36.827 -0.477344 24.604 1.93966 22.181 3.84666C20.841 3.69866 19.445 3.61266 18 3.61266C8.611 3.61266 1 6.84166 1 12.0567C1 17.2727 8.611 21.5017 18 21.5017C27.389 21.5017 35 17.2727 35 12.0577C35 11.1947 34.774 10.3937 34.385 9.64566ZM31.882 6.95366C30.525 6.01566 28.78 5.25966 26.761 4.70366C28.636 4.12766 31.312 4.39466 31.882 6.95366Z" fill="#CCD6DD"/>
<path d="M18 20C26.2843 20 33 16.866 33 13C33 9.13401 26.2843 6 18 6C9.71573 6 3 9.13401 3 13C3 16.866 9.71573 20 18 20Z" fill="#8A4B38"/>
<path d="M19.9993 17.001C19.7433 17.001 19.4873 16.903 19.2923 16.708C16.9553 14.371 16.9163 11.823 19.1673 8.446C19.9063 7.337 20.0673 6.2 19.6453 5.069C19.1843 3.833 18.2073 3.073 17.9143 2.992C17.3613 2.992 16.9563 2.549 16.9563 1.996C16.9563 1.444 17.4473 1.001 17.9993 1.001C18.9963 1.001 20.3943 2.154 21.1823 3.626C22.2163 5.559 22.0923 7.665 20.8313 9.555C18.8703 12.497 19.3003 13.887 20.7063 15.293C21.0973 15.684 21.0973 16.316 20.7063 16.707C20.5113 16.903 20.2553 17.001 19.9993 17.001ZM13.9993 15.001C13.7433 15.001 13.4873 14.903 13.2923 14.708C10.9553 12.371 10.9163 9.823 13.1673 6.446C13.8943 5.355 14.0603 4.363 13.6613 3.499C13.2173 2.538 12.2303 2.03 11.9773 2C11.4253 2 10.9883 1.553 10.9883 1C10.9883 0.448 11.4463 0 11.9993 0C12.9963 0 14.5843 0.974 15.3593 2.423C15.8403 3.322 16.4113 5.184 14.8313 7.554C12.8703 10.496 13.3003 11.886 14.7063 13.292C15.0973 13.683 15.0973 14.315 14.7063 14.706C14.5113 14.903 14.2553 15.001 13.9993 15.001Z" fill="#D99E82"/>
</svg>
