<svg width="21" height="21" viewBox="0 0 21 21" fill="none" xmlns="http://www.w3.org/2000/svg">
<g clip-path="url(#clip0_376_368)">
<rect width="21" height="21" rx="10.5" fill="#2D2D2D"/>
<rect x="5.01562" y="-2.04297" width="18.5841" height="18.5841" rx="9.29204" fill="#F5E6D3"/>
<path d="M8.33868 6.38393L8.99551 6.97534L9.76094 6.53342L9.40144 7.34085L10.0583 7.93226L9.17927 7.83987L8.81978 8.6473L8.63601 7.78277L7.75701 7.69039L8.52244 7.24846L8.33868 6.38393Z" fill="#2D2D2D"/>
<path d="M10.3501 10.8274L10.3793 11.3838L10.9175 11.528L10.3973 11.7277L10.4265 12.2841L10.0758 11.8511L9.55566 12.0507L9.85912 11.5835L9.50848 11.1505L10.0467 11.2947L10.3501 10.8274Z" fill="#2D2D2D"/>
<path d="M14.2262 5.38823L14.2833 6.47655L15.3359 6.75861L14.3185 7.14917L14.3756 8.23749L13.6897 7.39054L12.6723 7.7811L13.2658 6.8671L12.58 6.02016L13.6327 6.30222L14.2262 5.38823Z" fill="#2D2D2D"/>
</g>
<defs>
<clipPath id="clip0_376_368">
<rect width="21" height="21" rx="10.5" fill="white"/>
</clipPath>
</defs>
</svg>
