<svg width="16" height="16" viewBox="0 0 16 16" fill="none" xmlns="http://www.w3.org/2000/svg">
<path d="M14.6703 5.65096L10.612 5.05929L8.7981 1.38152C8.4731 0.72596 7.53144 0.717626 7.20366 1.38152L5.38977 5.05929L1.33144 5.65096C0.603659 5.75652 0.311992 6.65374 0.83977 7.16763L3.77588 10.0287L3.08144 14.0704C2.95644 14.801 3.72588 15.3482 4.37033 15.0065L8.00088 13.0982L11.6314 15.0065C12.2759 15.3454 13.0453 14.801 12.9203 14.0704L12.2259 10.0287L15.162 7.16763C15.6898 6.65374 15.3981 5.75652 14.6703 5.65096ZM10.7953 9.56207L11.4537 13.4065L8.00088 11.5926L4.5481 13.4065L5.20644 9.56207L2.41199 6.83985L6.2731 6.27874L8.00088 2.77874L9.72866 6.27874L13.5898 6.83985L10.7953 9.56207Z" fill="#FFD700"/>
</svg>
